{"title":"A Decent Arrangement (2014) 1080p Webrip x264 AC3 5.1 ESub -DDR","uid":15821491,"size":4730550340,"categoryP":"video","categoryS":"hd___movies","magnet":"?xt=urn:btih:968e79b511c220ba6840647d3dea5e81b6c9ad30&amp;dn=A+Decent+Arrangement+%282014%29+1080p+Webrip+x264+AC3+5.1+ESub+-DDR&amp;tr=udp%3A%2F%2Ftracker.leechers-paradise.org%3A6969&amp;tr=udp%3A%2F%2Fzer0day.ch%3A1337&amp;tr=udp%3A%2F%2Fopen.demonii.com%3A1337&amp;tr=udp%3A%2F%2Ftracker.coppersurfer.tk%3A6969&amp;tr=udp%3A%2F%2Fexodus.desync.com%3A6969","seeders":8,"leechers":14,"uploader":"SaM","files":3,"time":1473772309,"description":"1080p WebRip x264\r\n\r\nHindi/English AC3 5.1 Audio\r\n\r\n\r\n\r\nEnglish Subtitle\r\n\r\n\r\n\r\n{ SCREENSHOTS }\r\n \nhttp://extraimago.com/image/wluN \nhttp://extraimago.com/image/wlu2 \nhttp://extraimago.com/image/wluw \nhttp://extraimago.com/image/wlua \nhttp://extraimago.com/image/wlu8 \nhttp://extraimago.com/image/wlVv \nhttp://extraimago.com/image/wlVu \nhttp://extraimago.com/image/wlV6 \nhttp://extraimago.com/image/wlVx \nhttp://extraimago.com/image/wlVt \nhttp://extraimago.com/image/wlVo \nhttp://extraimago.com/image/wlVk \nhttp://extraimago.com/image/wlVH\r\n\r\nSpecs:\r\nSource: Netflix HD Rip @ DDR\r\n\r\nFormat : Matroska\r\nFile size : 4.37 GiB\r\nDuration : 1 h 35 min\r\nOverall bit rate : 6 545 kb/s\r\nEncoded date : UTC 2016-09-12 22:57:48\r\nWriting application : mkvmerge v9.2.0 ('Photograph') 64bit\r\nWriting library : libebml v1.3.3 + libmatroska v1.4.4\r\n\r\nVideo\r\nID : 1\r\nFormat : AVC\r\nFormat/Info : Advanced Video Codec\r\nFormat profile :   \r\nFormat settings, CABAC : Yes\r\nFormat settings, ReFrames : 4 frames\r\nCodec ID : V_MPEG4/ISO/AVC\r\nDuration : 1 h 35 min\r\nBit rate : 5 903 kb/s\r\nWidth : 1 920 pixels\r\nHeight : 1 080 pixels\r\nDisplay aspect ratio : 16:9\r\nFrame rate mode : Constant\r\nFrame rate : 24.000 FPS\r\nColor space : YUV\r\nChroma subsampling : 4:2:0\r\nBit depth : 8 bits\r\nScan type : Progressive\r\nBits/(Pixel*Frame) : 0.119\r\nStream size : 3.94 GiB (90%)\r\nLanguage : English\r\nDefault : Yes\r\nForced : No\r\nColor range : Limited\r\nColor primaries : BT.709\r\nTransfer characteristics : BT.709\r\nMatrix coefficients : BT.709\r\n\r\nAudio\r\nID : 2\r\nFormat : AC-3\r\nFormat/Info : Audio Coding 3\r\nMode extension : CM (complete main)\r\nFormat settings, Endianness : Big\r\nCodec ID : A_AC3\r\nDuration : 1 h 35 min\r\nBit rate mode : Constant\r\nBit rate : 640 kb/s\r\nChannel(s) : 6 channels\r\nChannel positions : Front: L C R, Side: L R, LFE\r\nSampling rate : 48.0 kHz\r\nFrame rate : 31.250 FPS (1536 spf)\r\nCompression mode : Lossy\r\nDelay relative to video : 18 ms\r\nStream size : 438 MiB (10%)\r\nLanguage : Hindi\r\nDefault : Yes\r\nForced : No","torrent":{"xt":"urn:btih:968e79b511c220ba6840647d3dea5e81b6c9ad30","amp;dn":"A+Decent+Arrangement+%282014%29+1080p+Webrip+x264+AC3+5.1+ESub+-DDR","amp;tr":["udp%3A%2F%2Ftracker.leechers-paradise.org%3A6969","udp%3A%2F%2Fzer0day.ch%3A1337","udp%3A%2F%2Fopen.demonii.com%3A1337","udp%3A%2F%2Ftracker.coppersurfer.tk%3A6969","udp%3A%2F%2Fexodus.desync.com%3A6969"],"infoHash":"968e79b511c220ba6840647d3dea5e81b6c9ad30","infoHashBuffer":{"type":"Buffer","data":[150,142,121,181,17,194,32,186,104,64,100,125,61,234,94,129,182,201,173,48]},"announce":[],"urlList":[]}}